HIERARCHY
ROOT Hips
{
	OFFSET 0.00000 0.00000 0.00000
	CHANNELS 6 Xposition Yposition Zposition Zrotation Yrotation Xrotation 
	JOINT LHipJoint
	{
		OFFSET 0 0 0
		CHANNELS 3 Zrotation Yrotation Xrotation
		JOINT LeftHip
		{
			OFFSET 1.84395 -1.68683 0.74144
			CHANNELS 3 Zrotation Yrotation Xrotation
			JOINT LeftKnee
			{
				OFFSET 2.27037 -6.23779 0.00000
				CHANNELS 3 Zrotation Yrotation Xrotation
				JOINT LeftAnkle
				{
					OFFSET 2.56918 -7.05877 0.00000
					CHANNELS 3 Zrotation Yrotation Xrotation
					JOINT LeftToe
					{
						OFFSET 0.22276 -0.61202 1.71784
						CHANNELS 3 Zrotation Yrotation Xrotation
						End Site
						{
							OFFSET 0.00000 -0.00000 0.91613
						}
					}
				}
			}
		}
	}
	JOINT RHipJoint
	{
		OFFSET 0 0 0
		CHANNELS 3 Zrotation Yrotation Xrotation
		JOINT RightHip
		{
			OFFSET -1.76833 -1.68684 0.74144
			CHANNELS 3 Zrotation Yrotation Xrotation
			JOINT RightKnee
			{
				OFFSET -2.49360 -6.85110 0.00000
				CHANNELS 3 Zrotation Yrotation Xrotation
				JOINT RightAnkle
				{
					OFFSET -2.55538 -7.02085 0.00000
					CHANNELS 3 Zrotation Yrotation Xrotation
					JOINT RightToe
					{
						OFFSET -0.21516 -0.59115 1.68050
						CHANNELS 3 Zrotation Yrotation Xrotation
						End Site
						{
							OFFSET -0.00000 -0.00000 0.89604
						}
					}
				}
			}
		}
	}
	JOINT lowerback
	{
		OFFSET 0 0 0
		CHANNELS 3 Zrotation Yrotation Xrotation
		JOINT Chest
		{
			OFFSET 0.06382 1.72312 -0.19613
			CHANNELS 3 Zrotation Yrotation Xrotation
			JOINT Chest2
			{
				OFFSET -0.00055 1.73507 0.23859
				CHANNELS 3 Zrotation Yrotation Xrotation
				JOINT lowerneck
				{
					OFFSET 0 0 0
					CHANNELS 3 Zrotation Yrotation Xrotation
					JOINT Neck
					{
						OFFSET 0.03638 1.65562 0.09633
						CHANNELS 3 Zrotation Yrotation Xrotation
						JOINT Head
						{
							OFFSET 0.06388 1.62807 -0.32386
							CHANNELS 3 Zrotation Yrotation Xrotation
							End Site
							{
								OFFSET 0.00995 1.67644 -0.12021
							}
						}
					}
				}
				JOINT LeftCollar
				{
					OFFSET 0 0 0
					CHANNELS 3 Zrotation Yrotation Xrotation
					JOINT LeftShoulder
					{
						OFFSET 3.09648 1.42991 0.28122
CHANNELS 3 Zrotation Xrotation Yrotation
						JOINT LeftElbow
						{
OFFSET 0 -5.118780 -0.000000
CHANNELS 3 Zrotation Xrotation Yrotation
							JOINT LeftWrist
							{
OFFSET 0 -3.599710 0.000000
CHANNELS 3 Zrotation Xrotation Yrotation
								JOINT lhand
								{
									OFFSET 0 0 0
CHANNELS 3 Zrotation Xrotation Yrotation
									JOINT LFingers
									{
OFFSET 0 -0.628770 0.000000
CHANNELS 3 Zrotation Xrotation Yrotation
										End Site
										{
OFFSET 0 -0.506930 0.000000
										}
									}
								}
								JOINT LThumb
								{
OFFSET 0 0.000000 0.000000
CHANNELS 3 Zrotation Xrotation Yrotation
									End Site
									{
OFFSET 0 -0.514670 0.514670
									}
								}
							}
						}
					}
				}
				JOINT RightCollar
				{
					OFFSET 0 0 0
					CHANNELS 3 Zrotation Yrotation Xrotation
					JOINT RightShoulder
					{
						OFFSET -3.33565 1.14597 0.05047
CHANNELS 3 Zrotation Xrotation Yrotation
						JOINT RightElbow
						{
OFFSET 0 -5.490200 0.000000
CHANNELS 3 Zrotation Xrotation Yrotation
							JOINT RightWrist
							{
OFFSET 0 -3.206590 -0.000000
CHANNELS 3 Zrotation Xrotation Yrotation
								JOINT rhand
								{
									OFFSET 0 0 0
CHANNELS 3 Zrotation Xrotation Yrotation
									JOINT RFingers
									{
OFFSET 0 -0.691880 0.000000
CHANNELS 3 Zrotation Xrotation Yrotation
										End Site
										{
OFFSET 0 -0.557810 0.000000
										}
									}
								}
								JOINT RThumb
								{
OFFSET 0 0.000000 0.000000
CHANNELS 3 Zrotation Xrotation Yrotation
									End Site
									{
OFFSET 0 -0.566330 0.566330
									}
								}
							}
						}
					}
				}
			}
		}
	}
}
MOTION
Frames: 9
Frame Time: 0.008333333333333333
-0.473900 17.493000 7.464000 -6.641000 -3.099800 5.755500 0.000000 0.000000 0.000000 -21.852300 -33.205800 24.040000 0.049800 -1.440000 -3.960300 -4.768000 38.680600 -34.125600 0.058900 1.566300 4.308400 0.000000 0.000000 0.000000 27.343200 22.102900 9.546500 -0.007300 -0.553400 1.520700 0.341300 -15.954000 -18.836900 -0.000300 -0.109400 0.300600 4.113800 0.302700 3.122100 1.120400 0.862800 -8.535200 -1.204200 0.126200 -10.826800 -13.380100 -14.828100 -2.401600 10.692700 -22.154200 22.145700 3.268900 -10.701200 10.160800 -0.000000 0.000000 0.000000 -1.249200 12.216100 22.727100 12.101900 -19.957400 2.137000 16.239700 22.182600 13.223000 0.000000 0.000000 0.000000 -7.125000 0.000000 0.000000 -7.639300 16.306800 -5.234300 -0.000000 0.000000 0.000000 2.474800 13.895900 -14.966700 -12.141200 -20.016000 -2.150400 7.767700 45.076600 30.055700 0.000000 0.000000 0.000000 7.125000 0.000000 -0.000000 40.910700 55.089600 -11.554000
-0.474805 17.493153 7.463142 -6.630985 -3.014805 5.745769 0.000000 0.000000 0.000000 -21.862192 -33.255726 24.052471 0.049729 -1.438770 -3.956948 -4.763323 38.659887 -34.093224 0.057407 1.545535 4.251224 0.000000 0.000000 0.000000 27.330727 22.027475 9.535634 -0.007224 -0.550464 1.512525 0.339945 -15.953839 -18.854082 -0.000024 -0.026949 0.074017 4.114630 0.320054 3.194511 1.083984 0.887618 -8.540150 -1.247409 0.135364 -10.874596 -13.388312 -14.815691 -2.239504 10.931560 -22.182578 21.924893 3.361513 -10.707885 10.086797 0.000000 0.000000 0.000000 -1.286047 12.271628 23.510995 11.939266 -19.713411 2.081799 16.038293 23.178354 13.091774 0.000000 0.000000 0.000000 -7.125000 0.000000 0.000000 -7.777285 16.457625 -5.304941 0.000000 0.000000 0.000000 2.583128 13.965305 -15.077487 -12.146015 -20.023322 -2.151997 7.915626 44.981207 30.104006 0.000000 0.000000 0.000000 7.125000 0.000000 0.000000 41.085612 55.098115 -11.626324
-0.476731 17.492895 7.463610 -6.628358 -2.958692 5.782359 0.000000 0.000000 0.000000 -21.885463 -33.377392 24.079918 0.049647 -1.438090 -3.955116 -4.770050 38.702012 -34.177574 0.058947 1.567169 4.310817 0.000000 0.000000 0.000000 27.347988 22.106277 9.558179 -0.006947 -0.538692 1.480270 0.348245 -16.049984 -18.916363 -0.000458 -0.136746 0.375785 4.074154 0.307065 3.189348 1.099029 0.866881 -8.519246 -1.206193 0.130316 -10.848994 -13.335520 -14.814478 -2.240589 10.954197 -22.169835 21.794938 3.366433 -10.698684 10.034459 0.000000 0.000000 0.000000 -1.410064 12.342436 23.910922 11.834218 -19.555517 2.046436 15.889392 23.592950 13.124292 0.000000 0.000000 0.000000 -7.125000 0.000000 0.000000 -7.880041 16.436026 -5.380054 0.000000 0.000000 0.000000 2.602804 13.947559 -15.188118 -12.126867 -19.994653 -2.145470 8.148638 45.045515 30.136374 0.000000 0.000000 0.000000 7.125000 0.000000 0.000000 41.322566 55.077386 -11.690014
-0.479104 17.492513 7.464631 -6.664156 -2.883806 5.833397 0.000000 0.000000 0.000000 -21.839359 -33.500537 24.076703 0.049571 -1.436538 -3.950829 -4.781982 38.739365 -34.212479 0.058784 1.563998 4.302070 0.000000 0.000000 0.000000 27.412992 22.195578 9.571733 -0.006671 -0.528514 1.452330 0.360253 -16.176059 -18.983450 -0.001044 -0.209722 0.576205 4.081075 0.302713 3.165980 1.111824 0.861213 -8.505638 -1.195491 0.128471 -10.819917 -13.317660 -14.824066 -2.234476 10.999629 -22.180590 21.690812 3.379470 -10.700826 10.000883 0.000000 0.000000 0.000000 -1.513414 12.400425 24.319777 11.720496 -19.384121 2.008604 15.748903 24.028276 13.176223 0.000000 0.000000 0.000000 -7.125000 0.000000 0.000000 -7.976950 16.393919 -5.454906 0.000000 0.000000 0.000000 2.649540 13.930101 -15.392332 -12.105148 -19.962222 -2.138054 8.331015 45.151682 30.170960 0.000000 0.000000 0.000000 7.125000 0.000000 0.000000 41.515964 55.068385 -11.750572
-0.481352 17.491874 7.466257 -6.710488 -2.806430 5.899261 0.000000 0.000000 0.000000 -21.766999 -33.625459 24.049496 0.049295 -1.433502 -3.942336 -4.796542 38.775935 -34.227590 0.057905 1.552967 4.271876 0.000000 0.000000 0.000000 27.480920 22.284706 9.562382 -0.006500 -0.521186 1.431995 0.372717 -16.300458 -19.043966 -0.001705 -0.263002 0.722582 4.096416 0.303378 3.114427 1.124864 0.861726 -8.498305 -1.189715 0.128947 -10.780467 -13.339257 -14.836023 -2.220839 11.051678 -22.201242 21.635374 3.397737 -10.709195 9.990695 0.000000 0.000000 0.000000 -1.607700 12.442387 24.721019 11.601624 -19.204492 1.969230 15.637341 24.456478 13.204983 0.000000 0.000000 0.000000 -7.125000 0.000000 0.000000 -8.053713 16.373186 -5.512127 0.000000 0.000000 0.000000 2.690409 13.911202 -15.653634 -12.070796 -19.910744 -2.126355 8.393071 45.322521 30.151662 0.000000 0.000000 0.000000 7.125000 0.000000 0.000000 41.554310 55.041253 -11.735083
-0.482870 17.490911 7.468115 -6.734873 -2.740393 5.963470 0.000000 0.000000 0.000000 -21.736323 -33.753846 24.036600 0.049119 -1.430315 -3.933752 -4.807851 38.815023 -34.271925 0.058652 1.563243 4.300030 0.000000 0.000000 0.000000 27.500415 22.323950 9.518926 -0.006419 -0.518285 1.424200 0.378329 -16.357109 -19.073765 -0.001800 -0.274888 0.755232 4.088635 0.307488 3.051178 1.129374 0.863666 -8.500763 -1.180345 0.131511 -10.744791 -13.360059 -14.845233 -2.182173 11.092576 -22.225872 21.628707 3.413148 -10.720629 9.992637 0.000000 0.000000 0.000000 -1.684458 12.478105 25.171793 11.479886 -19.020020 1.929388 15.525941 24.958881 13.188535 0.000000 0.000000 0.000000 -7.125000 0.000000 0.000000 -8.130398 16.398720 -5.561119 0.000000 0.000000 0.000000 2.712525 13.915347 -15.911467 -12.023600 -19.839950 -2.110297 8.306897 45.530392 30.059829 0.000000 0.000000 0.000000 7.125000 0.000000 0.000000 41.396595 54.987074 -11.619268
-0.483789 17.490227 7.469978 -6.735473 -2.687395 6.009379 0.000000 0.000000 0.000000 -21.770076 -33.888560 24.075575 0.049158 -1.430740 -3.934830 -4.818330 38.867907 -34.364944 0.061844 1.604453 4.413727 0.000000 0.000000 0.000000 27.490607 22.335724 9.484786 -0.006400 -0.515629 1.416919 0.379689 -16.380245 -19.097413 -0.001958 -0.285150 0.783389 4.060158 0.317212 3.000568 1.119452 0.870992 -8.505982 -1.175542 0.137411 -10.719449 -13.320339 -14.870706 -2.155853 11.060149 -22.267593 21.677446 3.391890 -10.739882 10.002115 0.000000 0.000000 0.000000 -1.730328 12.498343 25.682890 11.359172 -18.836628 1.890281 15.443053 25.527848 13.196784 0.000000 0.000000 0.000000 -7.125000 0.000000 0.000000 -8.187464 16.396756 -5.601320 0.000000 0.000000 0.000000 2.735495 13.937598 -16.178281 -11.970598 -19.760518 -2.092350 8.197225 45.741927 29.996651 0.000000 0.000000 0.000000 7.125000 0.000000 0.000000 41.243261 54.959614 -11.534334
-0.485007 17.490234 7.471909 -6.745408 -2.637296 6.030771 0.000000 0.000000 0.000000 -21.803306 -33.997777 24.144816 0.049502 -1.436294 -3.950110 -4.822525 38.912153 -34.473221 0.066822 1.667865 4.588563 0.000000 0.000000 0.000000 27.514057 22.357932 9.499106 -0.006232 -0.508929 1.398496 0.381713 -16.424858 -19.150695 -0.002604 -0.327099 0.898763 4.040920 0.329009 2.968602 1.105648 0.882275 -8.502084 -1.180701 0.144392 -10.694849 -13.244014 -14.911719 -2.137874 10.994912 -22.326801 21.733058 3.351467 -10.766685 10.009290 0.000000 0.000000 0.000000 -1.747649 12.502749 26.105997 11.256334 -18.680026 1.857194 15.456464 25.941915 13.145259 0.000000 0.000000 0.000000 -7.125000 0.000000 0.000000 -8.178173 16.448241 -5.585644 0.000000 0.000000 0.000000 2.765249 13.953662 -16.473141 -11.917424 -19.680585 -2.074362 8.158183 45.930126 30.014045 0.000000 0.000000 0.000000 7.125000 0.000000 0.000000 41.223600 54.980761 -11.550045
-0.486593 17.490600 7.473904 -6.766266 -2.588326 6.036593 0.000000 0.000000 0.000000 -21.806706 -34.063018 24.199473 0.049921 -1.442017 -3.965980 -4.818076 38.929724 -34.556177 0.070962 1.718607 4.728625 0.000000 0.000000 0.000000 27.565595 22.390535 9.544926 -0.005990 -0.499431 1.372437 0.385590 -16.492181 -19.221567 -0.003652 -0.389394 1.070042 4.031472 0.335796 2.948310 1.095734 0.888121 -8.486810 -1.186745 0.148348 -10.664616 -13.201090 -14.953977 -2.140232 10.954314 -22.392033 21.807514 3.320317 -10.795111 10.035136 0.000000 0.000000 0.000000 -1.742468 12.498255 26.362031 11.190223 -18.579256 1.836082 15.486457 26.196539 12.905361 0.000000 0.000000 0.000000 -7.125000 0.000000 0.000000 -8.157405 16.691156 -5.527589 0.000000 0.000000 0.000000 2.786828 13.958345 -16.769109 -11.869385 -19.608422 -2.058251 8.174473 46.093157 30.050392 0.000000 0.000000 0.000000 7.125000 0.000000 0.000000 41.270086 55.005744 -11.593720
